HIERARCHY
ROOT root
{
	OFFSET 0.000000 0.000000 0.000000
	CHANNELS 6 Xposition Yposition Zposition Zrotation Yrotation Xrotation
	JOINT lhip
	{
		OFFSET 0.058581 -0.082280 -0.017664
		CHANNELS 3 Zrotation Yrotation Xrotation
		JOINT lknee
		{
			OFFSET 0.043451 -0.386469 0.008037
			CHANNELS 3 Zrotation Yrotation Xrotation
			JOINT lankle
			{
				OFFSET -0.014790 -0.426874 -0.037428
				CHANNELS 3 Zrotation Yrotation Xrotation
				JOINT ltoe
				{
					OFFSET 0.041054 -0.060286 0.122042
					CHANNELS 3 Zrotation Yrotation Xrotation
					End Site
					{
						OFFSET 0.000000 0.000000 0.000000
					}
				}
			}
		}
	}
	JOINT rhip
	{
		OFFSET -0.060310 -0.090513 -0.013543
		CHANNELS 3 Zrotation Yrotation Xrotation
		JOINT rknee
		{
			OFFSET -0.043257 -0.383688 -0.004843
			CHANNELS 3 Zrotation Yrotation Xrotation
			JOINT rankle
			{
				OFFSET 0.019056 -0.420046 -0.034562
				CHANNELS 3 Zrotation Yrotation Xrotation
				JOINT rtoe
				{
					OFFSET -0.034840 -0.062106 0.130323
					CHANNELS 3 Zrotation Yrotation Xrotation
					End Site
					{
						OFFSET 0.000000 0.000000 0.000000
					}
				}
			}
		}
	}
	JOINT lowerback
	{
		OFFSET 0.004439 0.124404 -0.038385
		CHANNELS 3 Zrotation Yrotation Xrotation
		JOINT upperback
		{
			OFFSET 0.004488 0.137956 0.026820
			CHANNELS 3 Zrotation Yrotation Xrotation
			JOINT chest
			{
				OFFSET -0.002265 0.056032 0.002855
				CHANNELS 3 Zrotation Yrotation Xrotation
				JOINT lowerneck
				{
					OFFSET -0.013390 0.211636 -0.033468
					CHANNELS 3 Zrotation Yrotation Xrotation
					JOINT upperneck
					{
						OFFSET 0.010113 0.088937 0.050410
						CHANNELS 3 Zrotation Yrotation Xrotation
						End Site
						{
							OFFSET 0.000000 0.000000 0.000000
						}
					}
				}
				JOINT lclavicle
				{
					OFFSET 0.071702 0.114000 -0.018898
					CHANNELS 3 Zrotation Yrotation Xrotation
					JOINT lshoulder
					{
						OFFSET 0.122921 0.045205 -0.019046
						CHANNELS 3 Zrotation Yrotation Xrotation
						JOINT lelbow
						{
							OFFSET 0.255332 -0.015649 -0.022946
							CHANNELS 3 Zrotation Yrotation Xrotation
							JOINT lwrist
							{
								OFFSET 0.265709 0.012698 -0.007375
								CHANNELS 3 Zrotation Yrotation Xrotation
								End Site
								{
									OFFSET 0.000000 0.000000 0.000000
								}
							}
						}
					}
				}
				JOINT rclavicle
				{
					OFFSET -0.082954 0.112472 -0.023707
					CHANNELS 3 Zrotation Yrotation Xrotation
					JOINT rshoulder
					{
						OFFSET -0.113228 0.046853 -0.008472
						CHANNELS 3 Zrotation Yrotation Xrotation
						JOINT relbow
						{
							OFFSET -0.260127 -0.014369 -0.031269
							CHANNELS 3 Zrotation Yrotation Xrotation
							JOINT rwrist
							{
								OFFSET -0.269108 0.006794 -0.006027
								CHANNELS 3 Zrotation Yrotation Xrotation
								End Site
								{
									OFFSET 0.000000 0.000000 0.000000
								}
							}
						}
					}
				}
			}
		}
	}
}
MOTION
Frames: 5
Frame Time: 0.033333
2.344650 0.693357 0.991101 -75.628430 -0.772580 83.533426 -2.745944 -3.692792 1.639785 -1.318482 -14.119695 4.825036 -0.518040 7.243220 -9.308653 0.000000 -0.000000 0.000000 0.393543 -5.810067 0.938653 -2.817624 -2.991327 11.438456 -0.034722 -11.653084 -14.407763 0.000000 -0.000000 0.000000 -0.496773 5.969084 8.412826 -1.549408 -1.136606 12.796636 -0.496455 1.488367 -3.910687 0.320178 18.793011 -2.953244 2.126246 15.720862 -3.159013 -26.629977 -10.304297 1.611116 -51.662123 -6.831287 13.396737 -0.309249 -24.133620 9.630906 -9.260365 -4.843459 5.389214 25.711029 13.988682 7.904127 55.819227 5.151238 17.561390 -3.880803 26.096661 5.341223 5.494971 3.612706 4.186128 
2.343082 0.693362 0.990223 -75.549213 -1.248934 83.082577 -3.405100 -3.763034 2.397424 -0.675690 -13.803350 4.044580 2.492444 7.774402 -10.354654 0.000000 -0.000000 0.000000 0.199955 -3.906780 1.835065 -3.261389 -4.096775 11.139564 0.042343 -12.285043 -15.071073 0.000000 -0.000000 0.000000 -1.254080 5.955335 8.969004 -1.604029 -0.890596 12.128946 -0.169673 1.113845 -3.566533 0.476189 19.150990 -2.378106 2.370526 15.715563 -3.590609 -26.578886 -10.498852 2.046204 -51.485167 -6.463244 12.781584 -0.488489 -25.128721 9.097908 -8.667457 -4.866482 5.762110 25.551917 14.077513 7.941310 56.249622 5.138457 17.424528 -3.916900 26.179939 6.599838 4.356339 4.057527 5.392541 
2.343065 0.693505 0.989102 -75.485511 -1.576888 83.324478 -3.729127 -3.860630 1.956570 -0.795825 -13.795062 4.264978 1.593906 7.823473 -9.902375 0.000000 -0.000000 0.000000 -0.026636 -3.150307 1.212531 -3.373251 -4.214349 11.775709 0.074278 -12.646967 -15.196440 0.000000 -0.000000 0.000000 -1.775183 5.832708 8.844296 -1.551484 -0.708152 11.425313 -0.056675 0.886493 -2.961582 0.611299 19.403884 -2.250495 2.116102 15.753323 -4.064001 -26.017824 -9.958232 1.675276 -52.185158 -6.590788 13.317144 -0.628926 -25.436234 10.338275 -7.682981 -5.154585 6.280589 25.135279 12.793118 6.927161 56.674163 6.037665 16.896651 -3.315011 26.233156 7.058097 3.570390 4.143601 5.141115 
2.342941 0.693754 0.989529 -75.522791 -1.503023 83.264659 -3.555708 -3.811554 1.952805 -0.904114 -13.695213 4.369683 1.474381 7.727118 -9.889697 0.000000 -0.000000 0.000000 -0.012955 -3.125954 1.131026 -3.303966 -4.386852 12.083027 0.167910 -12.649567 -15.250159 0.000000 -0.000000 0.000000 -1.850762 5.821363 8.893567 -1.484305 -0.753861 11.179199 0.083947 0.861821 -2.845429 0.619040 19.472627 -2.098896 2.092503 15.730067 -4.400314 -25.995076 -10.123654 1.843860 -52.191518 -6.624955 13.333996 -0.867351 -25.912295 10.706137 -7.838945 -5.055863 6.075692 25.034235 12.945769 7.028515 56.704941 6.118568 16.804158 -3.486040 26.440423 7.003327 3.800240 4.001957 4.632228 
2.342696 0.693698 0.989763 -75.504328 -1.522757 83.164589 -3.579533 -3.776392 2.072929 -0.875086 -13.652448 4.366166 1.469877 7.730876 -9.859955 0.000000 -0.000000 0.000000 -0.043083 -3.194764 1.284562 -3.311988 -4.417557 12.009140 0.220015 -12.643175 -15.340481 0.000000 -0.000000 0.000000 -1.858548 5.869768 8.807685 -1.460814 -0.801210 11.446457 0.103688 0.774316 -2.934844 0.624379 19.583824 -1.986129 1.950904 15.794980 -4.651459 -26.022879 -10.277724 1.881262 -52.103825 -6.629770 13.366723 -1.027804 -26.051272 10.969817 -7.933398 -4.915354 6.448666 25.041480 13.061336 7.058791 56.621923 6.118088 16.782221 -3.568835 26.660637 7.038402 3.876546 3.966903 4.977242 
